<?xml version="1.0" encoding="UTF-8" standalone="no"?>
<svg
   xmlns:dc="http://purl.org/dc/elements/1.1/"
   xmlns:cc="http://creativecommons.org/ns#"
   xmlns:rdf="http://www.w3.org/1999/02/22-rdf-syntax-ns#"
   xmlns:svg="http://www.w3.org/2000/svg"
   xmlns="http://www.w3.org/2000/svg"
   id="svg4"
   version="1.1"
   viewBox="0 0 13.875 13.875"
   height="13.875"
   width="13.875">
  <metadata
     id="metadata10">
    <rdf:RDF>
      <cc:Work
         rdf:about="">
        <dc:format>image/svg+xml</dc:format>
        <dc:type
           rdf:resource="http://purl.org/dc/dcmitype/StillImage" />
      </cc:Work>
    </rdf:RDF>
  </metadata>
  <defs
     id="defs8" />
  <path
     style="fill:#86a1bf"
     id="path2"
     d="m 9.9585609,8.721124 3.6601571,3.660158 c 0.341709,0.341708 0.341709,0.895728 0,1.237436 -0.341708,0.341709 -0.895728,0.341709 -1.237436,0 L 8.721124,9.9585609 C 7.8157796,10.613776 6.7029936,11 5.5,11 2.4624339,11 0,8.5375661 0,5.5 0,2.4624339 2.4624339,0 5.5,0 8.5375661,0 11,2.4624339 11,5.5 11,6.7029936 10.613776,7.8157796 9.9585609,8.721124 Z M 5.5,9.25 C 7.5710678,9.25 9.25,7.5710678 9.25,5.5 9.25,3.4289322 7.5710678,1.75 5.5,1.75 3.4289322,1.75 1.75,3.4289322 1.75,5.5 c 0,2.0710678 1.6789322,3.75 3.75,3.75 z" />
</svg>
